<?xml version="1.0" standalone="no"?>
<!DOCTYPE svg PUBLIC "-//W3C//DTD SVG 20010904//EN"
 "http://www.w3.org/TR/2001/REC-SVG-20010904/DTD/svg10.dtd">
<svg version="1.0" xmlns="http://www.w3.org/2000/svg"
 width="2088.000000pt" height="2088.000000pt" viewBox="0 0 2088.000000 2088.000000"
 preserveAspectRatio="xMidYMid meet">
<metadata>
Created by potrace 1.14, written by Peter Selinger 2001-2017
</metadata>
<g transform="translate(0.000000,2088.000000) scale(0.100000,-0.100000)"
fill="#000000" stroke="none">
<path d="M15537 13314 c-1 -1 -45 -4 -97 -8 -52 -3 -106 -8 -119 -10 -12 -3
-42 -7 -65 -10 -22 -3 -75 -12 -116 -21 -41 -9 -83 -18 -94 -20 -47 -10 -223
-70 -241 -82 -11 -7 -25 -13 -33 -13 -7 0 -46 -16 -86 -35 -41 -19 -79 -35
-84 -35 -6 0 -12 -3 -14 -8 -1 -4 -38 -27 -80 -52 -43 -24 -78 -47 -78 -52 0
-4 -5 -8 -11 -8 -34 0 -289 -251 -351 -345 -93 -142 -140 -254 -173 -413 -7
-35 -14 -64 -16 -66 -2 -1 -32 -20 -66 -42 -35 -21 -63 -42 -63 -46 0 -5 -5
-8 -11 -8 -20 0 -237 -179 -323 -266 -219 -223 -354 -424 -484 -724 -18 -40
-85 -246 -85 -260 0 -3 -4 -21 -8 -40 -10 -41 -28 -145 -37 -210 -8 -58 -6
-413 2 -465 38 -236 92 -407 183 -575 25 -47 51 -95 57 -107 6 -13 14 -23 19
-23 4 0 7 -5 7 -11 0 -9 21 -40 102 -148 55 -72 208 -222 301 -294 48 -37 90
-67 94 -67 3 0 22 -12 42 -27 141 -108 516 -267 731 -309 14 -2 31 -7 38 -9 7
-2 34 -7 60 -11 26 -3 50 -8 53 -10 4 -2 23 -6 43 -9 20 -3 52 -7 72 -10 172
-24 444 -33 614 -20 166 13 231 20 280 30 19 3 46 8 60 10 14 2 46 8 73 13 26
5 47 7 47 4 0 -2 7 1 15 8 8 7 15 10 15 7 0 -4 18 0 39 8 22 7 41 11 44 8 3
-2 14 0 25 6 10 5 30 12 43 15 27 5 189 56 259 81 49 18 69 27 173 74 37 17
72 31 77 31 6 0 10 5 10 12 0 6 3 9 6 6 10 -11 298 159 346 205 7 7 31 25 53
41 73 54 260 250 316 331 61 88 73 112 59 120 -5 3 -33 -29 -62 -71 -29 -42
-60 -86 -68 -98 -30 -42 -187 -194 -265 -257 -150 -120 -347 -239 -506 -304
-35 -14 -73 -30 -84 -35 -24 -12 -76 -32 -90 -36 -5 -1 -55 -17 -110 -34 -142
-46 -366 -98 -490 -115 -22 -2 -51 -7 -65 -9 -139 -26 -723 -26 -810 -2 -14 4
-58 12 -120 21 -52 8 -96 16 -135 26 -22 6 -47 13 -55 15 -274 65 -533 185
-775 359 -352 252 -602 652 -673 1080 -24 147 -24 149 -25 310 -2 199 14 333
62 515 45 172 150 408 257 573 150 232 412 497 644 651 30 20 60 40 67 46 7 5
14 10 17 10 2 0 4 -35 4 -77 -1 -80 6 -143 22 -200 4 -18 7 -33 4 -33 -3 0 16
-53 41 -115 5 -11 9 -22 10 -25 0 -3 13 -30 29 -61 45 -90 141 -210 237 -294
32 -28 207 -149 219 -151 3 0 17 -6 33 -14 19 -10 27 -20 26 -39 -2 -75 30
-192 75 -272 29 -51 119 -149 181 -196 94 -72 311 -161 435 -178 24 -4 47 -8
51 -11 13 -7 223 -21 379 -24 24 -1 24 -1 6 -15 -10 -7 -35 -29 -55 -47 -30
-29 -192 -165 -255 -215 -78 -62 -275 -182 -391 -237 -33 -15 -73 -35 -90 -44
-16 -9 -32 -16 -35 -15 -3 0 -16 -3 -28 -8 -28 -11 -72 2 -207 61 -87 38 -309
119 -345 126 -14 2 -31 7 -38 9 -47 17 -227 23 -292 11 -97 -19 -151 -78 -155
-171 -3 -58 55 -134 127 -168 48 -23 114 -46 147 -52 14 -3 37 -7 51 -10 14
-2 36 -7 50 -10 171 -33 517 -35 703 -5 98 16 109 18 203 45 77 23 99 25 183
20 98 -7 250 -7 331 -1 60 5 170 17 195 22 10 2 37 6 60 10 68 10 255 61 345
94 93 34 323 141 328 153 2 4 8 7 13 7 9 0 138 78 149 90 3 3 31 22 63 44 31
21 57 42 57 47 0 4 9 10 20 14 23 7 250 229 301 294 18 24 46 58 60 75 107
130 254 408 317 601 49 148 55 172 87 350 34 187 22 483 -25 645 -5 19 -10 42
-10 50 0 18 186 118 268 145 29 9 51 19 49 21 -2 2 -43 5 -90 6 l-86 1 -82
-52 c-45 -28 -83 -50 -84 -49 -1 2 -21 43 -44 92 -59 126 -108 206 -201 325
-34 43 -124 133 -192 192 -108 93 -356 249 -397 249 -6 0 -11 4 -11 8 0 5 -15
14 -32 20 -18 6 -64 23 -103 37 -128 49 -317 99 -415 110 -19 3 -44 6 -55 9
-51 12 -467 30 -478 20z m328 -38 c44 -3 96 -8 115 -11 19 -2 58 -7 85 -11 28
-3 79 -13 115 -21 36 -8 76 -17 89 -19 64 -12 278 -92 379 -141 100 -49 250
-141 322 -198 28 -23 230 -225 245 -246 6 -8 25 -33 43 -55 17 -23 32 -46 32
-52 0 -6 4 -12 8 -14 13 -5 80 -131 112 -210 l28 -72 -46 -34 c-68 -51 -166
-137 -248 -217 -39 -38 -87 -85 -107 -104 l-36 -34 -29 66 c-86 189 -266 357
-507 472 -79 37 -211 89 -255 100 -8 3 -40 11 -70 20 -60 16 -190 42 -260 50
-25 3 -65 8 -90 11 -72 9 -165 13 -310 13 -347 0 -624 -41 -930 -135 -63 -19
-124 -39 -135 -43 -11 -5 -65 -26 -120 -47 -54 -22 -160 -69 -233 -106 -74
-38 -137 -68 -139 -68 -4 0 1 38 11 85 32 141 134 334 231 441 78 85 93 100
126 129 147 129 298 221 484 295 77 31 228 80 290 95 17 4 39 9 50 12 95 22
220 40 340 49 44 3 81 7 82 7 3 4 253 -2 328 -7z m-89 -748 c5 -3 38 -8 74
-12 36 -4 88 -11 115 -16 28 -5 62 -11 76 -14 68 -11 278 -77 359 -113 153
-67 255 -133 351 -225 74 -71 139 -149 139 -167 0 -6 4 -11 9 -11 11 0 73
-139 69 -155 -2 -7 -62 -75 -134 -151 -72 -77 -142 -151 -155 -165 -13 -15
-64 -70 -114 -124 -49 -54 -103 -112 -120 -130 -16 -18 -70 -77 -120 -130 -49
-54 -103 -112 -119 -129 -267 -291 -509 -529 -544 -537 -32 -6 -231 -3 -317 5
-66 6 -98 11 -165 26 -25 6 -54 12 -65 15 -49 10 -167 56 -237 93 -124 65
-215 146 -274 245 -30 51 -35 64 -55 137 -13 48 -21 132 -12 128 36 -17 122
-52 133 -54 3 0 30 -8 61 -18 92 -27 212 -49 344 -62 111 -10 435 -3 485 11 8
2 32 6 53 10 170 25 352 95 492 188 65 44 181 158 190 188 4 11 10 19 14 19 9
0 53 129 55 163 5 67 -49 193 -101 237 -81 69 -193 123 -303 145 -160 32 -400
37 -539 10 -10 -2 -34 -6 -52 -9 -291 -48 -614 -241 -753 -451 -29 -43 -103
-190 -96 -190 1 0 -2 -18 -6 -40 -7 -35 -11 -61 -13 -88 -1 -11 -99 43 -177
99 -103 73 -274 249 -274 283 0 5 -4 11 -8 13 -21 9 -96 192 -108 263 -3 21
-9 48 -13 59 -4 12 -8 72 -9 135 l-1 115 77 44 c42 24 106 57 142 73 36 16 73
34 82 39 37 21 216 86 353 130 43 14 224 58 265 65 19 3 42 8 50 10 8 2 35 7
60 10 25 4 65 10 90 15 25 4 52 8 60 8 35 1 175 15 178 17 6 6 499 -2 508 -7z
m1710 -468 c32 -152 37 -414 10 -555 -2 -11 -7 -42 -11 -70 -5 -27 -9 -52 -10
-55 -5 -21 -16 -90 -14 -92 1 -2 -3 -12 -9 -24 -6 -11 -13 -32 -16 -45 -10
-52 -70 -210 -121 -314 -60 -125 -141 -256 -223 -364 -63 -83 -238 -263 -322
-333 -69 -56 -229 -166 -295 -203 -27 -15 -54 -31 -60 -35 -21 -16 -282 -130
-298 -130 -8 0 -18 -4 -21 -9 -3 -5 -22 -12 -41 -15 -20 -4 -62 -15 -94 -26
-32 -10 -72 -21 -87 -24 -16 -2 -40 -7 -54 -11 -23 -5 -122 -20 -210 -32 -56
-7 -401 -12 -417 -6 -9 4 22 24 79 52 82 41 254 145 268 161 3 3 14 13 26 21
92 63 342 307 456 444 75 90 90 100 173 115 6 2 19 9 30 16 11 8 26 14 33 14
17 0 189 85 252 125 138 87 280 222 359 342 28 43 56 83 61 90 6 7 10 14 10
17 0 3 11 29 23 58 43 96 59 148 73 238 12 78 11 222 -3 295 -7 39 -13 75 -13
81 0 14 168 185 230 236 25 19 81 61 125 93 l80 57 13 -43 c7 -24 15 -55 18
-69z m-1696 -145 c88 -7 148 -16 200 -30 3 -1 19 -5 35 -10 62 -17 172 -81
216 -125 154 -154 93 -390 -142 -545 -97 -64 -271 -139 -374 -161 -32 -7 -167
-34 -200 -40 -55 -10 -429 -12 -485 -3 -30 5 -73 11 -95 14 -95 12 -182 34
-302 76 -111 39 -115 42 -108 91 37 243 223 467 499 598 84 40 256 103 256 95
0 -3 11 0 24 5 13 5 41 11 63 15 21 3 50 8 63 10 14 3 65 8 114 10 49 3 90 6
92 8 3 3 34 1 144 -8z m1207 -177 c0 -7 4 -29 8 -48 8 -40 8 -232 0 -270 -3
-14 -8 -38 -10 -55 -16 -91 -90 -271 -131 -316 -8 -8 -14 -19 -14 -24 0 -4
-17 -29 -37 -54 -115 -143 -266 -263 -443 -351 -65 -32 -213 -90 -231 -90 -10
0 71 120 117 173 5 7 99 147 209 312 109 164 202 304 207 310 5 5 41 58 81
116 88 130 224 309 236 309 4 0 8 -6 8 -12z m-2827 -1743 c47 -9 198 -60 266
-90 30 -13 56 -24 59 -25 6 -1 69 -27 124 -51 24 -10 51 -19 59 -19 10 0 12
-3 6 -9 -10 -11 -172 -58 -221 -65 -17 -2 -35 -6 -40 -9 -27 -17 -307 -27
-413 -15 -73 9 -89 13 -146 37 -129 56 -125 207 7 241 24 6 49 13 54 15 15 5
204 -3 245 -10z"/>
<path d="M1957 13294 c-1 -1 -60 -4 -132 -7 -129 -6 -256 -22 -390 -51 -91
-19 -297 -82 -351 -107 -24 -10 -45 -19 -48 -19 -9 0 -166 -78 -221 -110 -93
-53 -244 -172 -323 -254 -69 -72 -192 -233 -192 -251 0 -4 -9 -20 -21 -36 -11
-16 -18 -29 -14 -29 3 0 -1 -12 -9 -27 -85 -153 -108 -468 -48 -677 8 -28 -1
-56 -33 -106 -25 -38 -79 -207 -101 -310 -24 -117 -25 -374 -1 -486 52 -246
162 -444 337 -610 73 -70 168 -144 213 -169 20 -11 37 -23 37 -27 0 -5 5 -8
11 -8 6 0 24 -9 40 -21 16 -11 29 -17 29 -14 0 3 12 -2 28 -13 51 -35 324
-140 406 -156 12 -2 53 -11 91 -19 191 -42 374 -60 605 -60 130 0 327 10 339
17 3 2 29 7 56 10 82 10 109 15 285 60 46 12 126 40 134 47 6 5 16 9 23 9 27
0 227 101 308 155 101 67 203 166 256 248 29 45 36 63 27 69 -15 9 -34 11 -25
2 9 -9 -66 -114 -120 -170 -113 -115 -320 -236 -518 -302 -92 -31 -284 -76
-365 -87 -25 -3 -58 -8 -75 -10 -164 -22 -472 -22 -662 0 -123 15 -297 46
-348 62 -11 4 -25 8 -32 9 -17 3 -143 43 -168 54 -11 4 -36 14 -55 21 -107 39
-322 161 -406 230 -69 58 -141 129 -186 184 -63 77 -59 72 -94 130 -55 90 -84
159 -123 290 -32 108 -46 348 -27 470 16 102 41 206 63 265 4 8 7 17 8 20 1 5
21 50 48 112 14 33 21 29 47 -28 44 -101 153 -238 266 -335 43 -37 151 -109
163 -109 6 0 11 -3 11 -8 0 -4 15 -13 32 -21 51 -22 90 -52 85 -65 -4 -11 2
-54 17 -126 2 -8 8 -28 14 -43 7 -16 12 -31 12 -34 0 -19 81 -133 129 -181 81
-82 148 -124 311 -195 45 -20 212 -64 270 -72 178 -23 482 -24 610 -1 14 3 43
7 65 10 22 3 50 7 61 10 12 2 37 7 55 10 19 3 59 13 89 21 30 9 60 17 65 19
138 38 314 119 442 205 95 64 217 181 288 276 66 89 147 260 169 358 23 101
26 283 7 364 -7 28 -13 57 -15 64 -11 66 -56 161 -118 253 -139 205 -363 364
-653 463 -89 30 -245 70 -310 79 -27 3 -57 8 -66 9 -130 25 -596 24 -689 0 -8
-2 -37 -7 -65 -10 -74 -9 -270 -60 -360 -93 -97 -36 -225 -91 -245 -107 -8 -6
-28 -17 -45 -25 -176 -84 -449 -324 -562 -492 -29 -43 -54 -75 -57 -70 -13 21
-29 149 -31 242 -3 227 66 430 209 621 190 252 501 450 878 559 107 30 123 34
223 51 90 16 114 19 190 27 90 9 482 9 560 -1 124 -15 141 -17 170 -24 17 -4
38 -8 48 -9 9 -1 20 -3 25 -4 4 -1 12 -3 17 -4 187 -30 531 -168 692 -277 152
-102 335 -275 399 -375 10 -16 21 -31 24 -34 14 -14 63 -96 100 -171 53 -104
83 -184 109 -285 19 -77 23 -97 39 -219 12 -96 6 -301 -13 -425 -2 -14 -6 -41
-9 -60 -3 -19 -17 -80 -31 -135 -15 -55 -28 -107 -31 -115 -23 -92 -123 -330
-213 -510 -134 -268 -384 -658 -556 -871 -151 -186 -203 -237 -272 -269 -35
-17 -66 -30 -69 -30 -2 0 -59 -23 -127 -51 -288 -120 -377 -178 -377 -244 0
-82 105 -82 249 -1 51 30 132 80 156 99 6 4 28 21 50 38 67 50 108 83 121 97
7 6 17 12 23 12 6 0 11 4 11 8 0 21 125 106 245 167 72 36 137 70 145 75 8 5
52 32 98 60 46 27 86 50 88 50 6 0 308 201 314 209 3 4 12 10 20 13 8 4 89 63
179 133 142 110 180 141 235 190 6 6 47 41 91 79 90 79 410 398 467 466 21 25
48 57 61 72 12 15 45 57 72 92 28 36 53 65 56 65 17 2 -120 -383 -202 -567
-46 -104 -172 -347 -183 -354 -6 -4 -7 -8 -3 -8 5 0 -1 -13 -12 -29 -12 -16
-21 -32 -21 -36 0 -3 -11 -21 -25 -39 -14 -18 -25 -36 -25 -39 0 -10 -168
-255 -190 -277 -3 -3 -27 -32 -55 -65 -126 -152 -128 -153 -370 -252 -332
-136 -415 -188 -415 -261 0 -69 92 -77 210 -18 119 60 359 232 471 340 15 13
62 42 106 64 43 22 119 63 167 91 49 28 91 51 93 51 2 0 30 17 61 38 32 20 65
42 74 47 112 68 486 346 518 384 3 3 32 28 65 56 33 27 80 68 105 90 72 64
472 467 507 510 18 22 42 52 55 66 13 15 37 44 53 65 17 21 40 49 52 63 28 32
24 27 104 136 134 181 246 364 324 525 27 55 89 197 100 230 1 3 4 12 8 20 6
16 39 118 44 135 12 48 24 101 29 133 3 20 8 41 11 45 2 4 6 64 8 132 3 100 0
140 -15 201 -31 122 -89 218 -120 199 -7 -4 -8 -10 -3 -14 19 -13 51 -68 73
-126 24 -66 35 -232 20 -316 -4 -24 -10 -63 -14 -85 -11 -84 -52 -223 -108
-364 -34 -87 -140 -301 -169 -341 -10 -15 -19 -30 -19 -33 0 -6 -31 -56 -90
-146 -59 -90 -257 -359 -280 -380 -3 -3 -20 -23 -39 -45 -168 -199 -489 -517
-671 -665 -30 -25 -62 -52 -70 -60 -85 -85 -530 -404 -681 -488 -74 -41 -84
-47 -102 -61 -29 -23 -30 -5 -2 25 15 16 46 49 69 74 23 25 62 70 86 100 25
30 48 57 51 60 14 12 180 271 211 330 19 36 40 74 46 85 77 131 263 651 298
835 5 29 17 85 21 100 2 8 6 29 8 46 3 18 31 72 64 120 76 116 183 306 237
419 45 97 110 279 119 335 3 19 9 44 12 55 12 37 18 220 9 264 -20 91 -54 133
-109 133 -67 0 -119 -45 -172 -149 -23 -48 -46 -99 -51 -118 -38 -141 -65
-252 -73 -300 -6 -33 -13 -71 -16 -84 -2 -12 -7 -42 -10 -65 -3 -22 -7 -57
-10 -76 -3 -19 -7 -53 -10 -75 -2 -22 -6 -51 -9 -65 -3 -14 -7 -41 -10 -60 -4
-28 -26 -138 -51 -252 -22 -100 -43 -149 -93 -218 -194 -262 -434 -518 -707
-755 -38 -33 -76 -67 -85 -75 -8 -8 -63 -52 -120 -98 -58 -46 -114 -90 -125
-100 -80 -66 -429 -304 -548 -373 -33 -19 -71 -41 -86 -50 -46 -28 -161 -89
-167 -89 -2 0 64 69 148 153 138 137 183 184 283 298 63 71 165 198 234 289
39 52 75 100 80 106 4 5 14 21 21 35 7 13 16 26 19 29 40 33 189 344 246 512
46 136 51 156 61 213 3 17 12 62 19 100 21 112 17 333 -9 485 -66 386 -273
739 -579 986 -39 33 -73 62 -75 67 -2 4 -8 7 -13 7 -5 0 -32 17 -61 37 -178
128 -532 273 -788 324 -99 19 -205 36 -275 44 -89 10 -372 24 -378 19z m3443
-744 c40 -21 56 -148 36 -278 -29 -182 -137 -450 -285 -705 -28 -49 -58 -99
-67 -110 -15 -22 -16 -21 -10 8 6 28 10 53 22 135 2 19 6 46 8 60 3 14 7 50
10 80 3 30 8 64 10 75 2 11 7 47 10 80 4 33 9 67 12 76 2 9 6 36 8 60 16 176
84 436 128 490 30 36 81 49 118 29z m-3255 -24 c39 -5 78 -10 89 -12 10 -2 37
-6 60 -8 22 -3 64 -10 91 -16 28 -6 59 -13 70 -15 58 -10 196 -57 280 -94 176
-77 289 -149 397 -254 153 -148 234 -300 262 -490 17 -117 12 -228 -16 -332
-5 -22 -12 -48 -13 -57 -6 -32 -83 -186 -121 -245 -52 -80 -203 -227 -297
-291 -101 -68 -263 -145 -396 -188 -58 -19 -115 -36 -126 -38 -11 -3 -42 -10
-70 -16 -59 -14 -66 -15 -235 -37 -69 -9 -420 -9 -480 0 -177 25 -315 64 -421
117 -169 86 -284 202 -339 341 -23 56 -41 169 -29 169 5 0 30 -9 57 -19 58
-23 220 -68 277 -77 22 -3 43 -8 46 -9 29 -18 451 -27 564 -12 150 21 303 58
385 94 62 27 185 87 190 93 3 3 31 22 63 44 71 48 162 144 187 200 65 139 40
278 -67 376 -185 170 -560 223 -943 134 -140 -32 -309 -106 -436 -190 -171
-113 -330 -332 -349 -480 -10 -77 -11 -83 -18 -90 -20 -20 -236 125 -333 222
-80 81 -177 216 -189 264 -1 3 -5 12 -8 20 -23 55 -26 70 -14 82 7 8 21 29 31
48 48 87 152 207 266 308 163 142 385 272 590 342 52 18 102 35 110 38 8 3 20
6 25 7 6 2 39 10 75 19 71 17 96 22 220 41 14 2 63 7 110 10 47 4 86 8 87 9 5
5 309 -2 368 -8z m57 -651 c115 -23 120 -24 158 -40 125 -56 196 -113 232
-186 36 -74 34 -189 -5 -265 -51 -100 -170 -205 -307 -271 -67 -32 -199 -82
-240 -90 -46 -9 -50 -10 -52 -13 -7 -5 -81 -18 -203 -34 -89 -12 -397 -13
-465 -2 -19 4 -46 8 -60 11 -14 2 -41 7 -60 9 -49 8 -66 12 -135 30 -33 10
-64 18 -70 20 -50 12 -145 50 -146 57 -11 79 34 219 104 326 117 176 314 315
559 393 82 26 113 34 223 55 17 4 66 9 110 12 44 3 81 6 82 7 9 7 214 -7 275
-19z m508 -2498 c-158 -150 -334 -255 -408 -243 -15 2 -30 5 -34 5 -16 2 -7
30 17 59 27 32 208 127 295 155 3 1 41 16 85 34 44 18 82 32 85 33 3 0 -15
-19 -40 -43z m1204 15 c-95 -87 -254 -202 -326 -235 -84 -39 -165 -27 -139 21
15 28 86 77 159 109 31 14 76 33 99 44 23 10 44 19 46 19 3 0 22 8 43 17 57
25 128 49 133 46 3 -2 -4 -11 -15 -21z"/>
<path d="M11466 13243 c-6 -7 -52 -13 -128 -19 -43 -3 -85 -7 -94 -8 -16 -2
-43 -30 -142 -145 -26 -30 -51 -59 -57 -65 -22 -25 -172 -193 -200 -224 -16
-19 -39 -44 -50 -56 -11 -13 -45 -51 -75 -86 -30 -35 -73 -84 -96 -109 -69
-77 -146 -164 -204 -230 -30 -34 -60 -68 -66 -74 -6 -7 -50 -57 -99 -112 -48
-55 -95 -107 -104 -116 -9 -9 -35 -38 -57 -65 -23 -27 -52 -61 -65 -75 -13
-14 -54 -59 -90 -100 -36 -41 -142 -159 -234 -264 -93 -104 -178 -201 -189
-214 -12 -13 -32 -36 -45 -50 -13 -14 -49 -55 -80 -90 -31 -36 -67 -76 -79
-90 -34 -37 -126 -141 -152 -171 -12 -14 -49 -56 -83 -94 -34 -38 -74 -83 -89
-100 l-27 -31 5 29 c3 16 6 31 7 35 6 24 -15 69 -39 81 -27 15 -128 18 -189 7
-64 -12 -85 -18 -109 -27 -13 -5 -27 -6 -30 -3 -3 4 -6 1 -6 -5 0 -7 -9 -12
-19 -12 -38 0 -333 -166 -371 -209 -3 -3 -34 -31 -69 -60 -63 -54 -93 -85
-203 -206 -116 -128 -268 -267 -393 -360 -22 -17 -42 -32 -45 -35 -32 -33
-180 -117 -221 -126 -13 -3 -34 -7 -46 -10 -28 -6 -63 27 -63 60 0 58 72 181
161 277 13 14 49 54 79 89 30 35 60 68 65 74 6 6 75 85 155 176 80 91 150 170
155 176 6 6 39 44 75 84 36 41 75 85 88 98 12 14 40 46 62 72 22 26 50 58 62
71 13 14 50 56 83 94 33 37 71 80 85 95 14 15 48 53 75 85 28 32 55 63 60 69
6 6 44 49 85 96 41 47 80 90 85 96 6 6 39 44 75 84 36 40 70 78 75 84 6 6 44
49 85 96 41 47 77 87 80 90 3 3 37 41 75 85 39 44 75 84 81 90 5 5 41 46 80
90 38 44 74 84 80 90 5 5 41 46 80 89 38 44 76 87 84 96 8 9 49 54 90 101 101
113 438 450 525 525 39 33 91 75 118 94 26 18 47 34 47 35 0 1 -60 1 -134 1
l-133 -1 -26 -30 c-39 -46 -173 -198 -207 -235 -8 -9 -44 -50 -80 -91 -36 -41
-69 -79 -75 -85 -5 -6 -35 -39 -65 -74 -30 -35 -66 -75 -80 -90 -14 -15 -52
-58 -85 -96 -33 -37 -80 -91 -105 -119 -25 -28 -74 -84 -110 -125 -36 -40 -72
-81 -80 -89 -8 -9 -78 -89 -155 -176 -184 -210 -195 -222 -230 -261 -16 -17
-55 -61 -85 -95 -30 -35 -64 -73 -75 -85 -11 -11 -41 -45 -67 -75 -53 -61 -73
-84 -161 -184 -34 -38 -73 -82 -87 -96 -14 -15 -45 -51 -70 -80 -25 -29 -54
-63 -65 -75 -46 -50 -94 -104 -165 -184 -124 -140 -113 -130 -101 -97 19 48
13 91 -14 117 -20 19 -35 23 -92 23 -109 1 -186 -16 -318 -68 -61 -24 -261
-136 -275 -154 -3 -4 -25 -22 -50 -41 -92 -71 -167 -143 -268 -257 -171 -195
-372 -354 -578 -457 -27 -14 -52 -25 -57 -25 -4 0 -20 -7 -36 -16 -34 -17
-108 -35 -170 -40 -42 -4 -92 13 -106 36 -17 26 -14 92 6 147 22 57 100 198
129 230 8 9 31 38 50 64 20 27 44 48 55 48 11 1 27 3 35 4 8 2 40 6 70 10 89
11 217 54 340 113 63 30 117 58 120 62 3 3 23 18 45 32 54 36 141 121 158 156
8 15 14 45 13 67 -2 61 -36 81 -139 82 -45 0 -86 -2 -92 -5 -5 -3 -19 -7 -30
-8 -42 -6 -153 -46 -225 -80 -61 -29 -208 -120 -230 -143 -3 -3 -27 -23 -55
-45 -65 -53 -143 -130 -180 -180 -17 -22 -33 -42 -36 -45 -18 -16 -94 -158
-114 -215 -17 -51 -22 -84 -20 -139 8 -211 158 -271 409 -164 163 70 363 202
490 323 12 11 33 31 48 44 l28 24 -30 -54 c-67 -125 -74 -297 -13 -357 21 -21
73 -33 94 -21 11 5 24 7 29 4 5 -3 17 -2 27 3 10 5 43 22 73 37 55 27 182 113
230 155 14 12 38 31 53 43 32 25 87 75 166 150 l55 52 -24 -40 c-39 -66 -96
-169 -98 -178 -1 -4 -9 -32 -18 -63 -19 -68 -12 -117 23 -150 49 -46 149 -21
298 74 39 25 82 54 96 66 15 11 38 30 53 40 54 39 102 81 201 176 l57 55 -25
-50 c-22 -45 -28 -63 -44 -130 -10 -43 -4 -152 11 -186 18 -43 83 -77 115 -59
10 5 21 7 24 3 4 -3 22 2 41 11 19 9 38 16 43 16 11 0 210 130 241 158 13 11
40 34 61 51 72 59 115 97 168 147 29 29 53 49 53 47 0 -3 -18 -34 -40 -69 -67
-106 -98 -186 -105 -270 -3 -46 47 -104 91 -104 35 0 144 32 144 42 0 4 6 8
13 8 15 0 180 107 214 139 12 12 25 21 29 21 4 0 14 8 23 18 9 10 30 28 46 41
17 12 54 45 83 73 28 27 52 45 52 39 0 -5 -5 -13 -10 -16 -16 -10 -76 -134
-92 -190 -22 -75 -16 -114 22 -148 29 -26 39 -29 79 -25 40 5 147 47 176 70 6
5 35 27 65 49 149 108 257 209 430 399 158 175 268 283 391 385 36 30 158 109
207 134 122 62 188 14 131 -94 -66 -123 -167 -245 -378 -456 -129 -128 -342
-317 -444 -394 -36 -27 -68 -54 -70 -60 -3 -6 45 -9 136 -8 121 2 141 5 152
20 7 10 30 36 51 59 22 22 68 74 104 115 140 157 329 352 451 463 30 27 70 63
89 81 19 17 78 64 130 103 52 40 100 75 105 80 29 22 154 90 180 97 36 10 86
8 99 -5 16 -16 8 -67 -17 -107 -26 -39 -110 -122 -259 -256 -252 -226 -366
-364 -388 -474 -19 -91 -4 -144 51 -184 59 -42 176 -9 319 90 130 89 200 145
304 243 39 36 72 65 74 63 2 -2 -6 -21 -17 -44 -48 -94 -60 -250 -24 -312 24
-42 66 -58 123 -47 47 8 210 86 210 100 0 4 6 8 13 8 7 0 22 8 33 18 10 9 44
35 74 57 63 46 202 166 242 209 15 17 30 27 33 24 4 -4 -20 -41 -63 -93 -4 -5
-48 -62 -97 -125 -49 -63 -94 -120 -100 -127 -17 -20 -26 -32 -145 -188 -63
-82 -119 -155 -125 -161 -5 -6 -32 -41 -59 -77 -27 -37 -53 -67 -58 -67 -4 0
-8 -5 -8 -11 0 -6 -16 -27 -35 -47 -19 -20 -35 -40 -35 -44 0 -8 -192 -124
-221 -133 -10 -4 -19 -11 -19 -16 0 -5 -5 -9 -11 -9 -6 0 -71 -36 -146 -80
-74 -44 -139 -80 -144 -80 -5 0 -9 -4 -9 -8 0 -5 -11 -14 -25 -20 -38 -18
-390 -252 -393 -263 -2 -5 -8 -9 -13 -9 -6 0 -15 -5 -22 -10 -7 -6 -68 -52
-137 -102 -69 -51 -129 -98 -133 -105 -4 -7 -15 -13 -22 -13 -8 0 -15 -4 -15
-8 0 -5 -19 -22 -42 -39 -24 -17 -52 -39 -63 -50 -11 -10 -45 -39 -75 -64
-130 -110 -274 -267 -307 -334 -6 -11 -13 -35 -16 -53 -6 -27 -2 -38 18 -58
13 -13 34 -25 47 -25 214 -12 438 79 768 311 35 25 175 135 196 155 6 5 42 37
80 70 130 113 474 466 474 486 0 4 3 9 8 11 4 2 27 28 52 58 25 30 47 57 50
60 4 3 19 23 36 45 16 22 34 45 39 51 6 7 21 26 35 44 14 18 31 38 38 45 6 8
12 17 12 22 0 4 15 25 33 45 17 20 48 59 67 85 19 26 40 54 47 60 6 7 13 16
15 20 4 11 96 73 107 73 5 0 11 4 13 8 2 4 25 23 53 42 27 19 56 41 63 48 7 6
17 12 22 12 5 0 15 6 22 13 7 7 29 24 48 37 19 13 40 28 45 32 6 4 64 49 130
99 66 51 122 95 125 99 3 3 14 13 26 21 57 39 215 182 360 324 147 145 197
202 185 209 -10 7 -15 2 -147 -135 -133 -138 -304 -294 -464 -422 -66 -53
-297 -226 -329 -247 -13 -8 -29 -19 -35 -25 -22 -20 -134 -95 -152 -102 -16
-6 -4 15 49 82 30 39 347 489 393 560 54 83 64 95 194 225 95 96 163 159 294
275 46 40 138 116 171 141 22 16 44 32 50 37 5 4 23 17 40 30 l30 22 -105 5
c-58 3 -112 3 -121 0 -10 -3 -39 -32 -65 -65 -27 -33 -59 -71 -71 -84 -21 -24
-21 -23 2 24 33 64 33 114 0 145 -20 19 -36 23 -87 24 -285 4 -632 -193 -908
-514 -136 -160 -303 -309 -475 -425 -117 -80 -194 -116 -252 -120 -73 -5 -96
50 -55 132 20 37 126 145 232 233 254 212 361 323 417 433 74 147 0 282 -139
252 -61 -13 -207 -95 -285 -160 -10 -8 -47 -37 -83 -65 -83 -67 -210 -182
-322 -292 -49 -49 -90 -88 -93 -88 -13 0 -1 20 38 61 167 179 265 321 283 409
4 22 7 64 4 73 -1 4 -3 10 -4 15 -6 28 -32 53 -63 61 -96 27 -303 -101 -533
-328 -59 -58 -131 -135 -161 -171 -70 -83 -277 -290 -354 -355 -149 -124 -269
-199 -338 -209 -29 -5 -42 -1 -56 13 -47 47 4 160 144 320 133 153 483 500
589 584 34 26 68 54 77 61 9 8 25 18 35 24 15 9 -12 11 -112 12 l-130 0 -86
-92 c-155 -169 -199 -218 -256 -287 -134 -163 -357 -378 -476 -460 -12 -8 -23
-18 -26 -21 -12 -15 -178 -119 -212 -133 -103 -43 -154 -23 -143 56 9 58 48
125 124 215 36 43 72 85 81 95 8 10 24 29 35 41 80 90 159 179 200 226 27 30
51 57 54 60 3 3 33 36 66 75 57 66 95 110 140 159 11 12 45 51 75 86 30 35 72
82 94 104 21 23 47 52 57 65 16 19 118 136 154 175 8 9 156 176 261 296 12 14
34 39 49 55 15 17 50 56 79 89 28 32 60 68 71 80 11 12 49 55 85 96 36 40 72
81 80 90 23 24 152 170 186 209 16 19 44 50 63 70 18 20 54 60 80 90 25 30 57
66 71 81 14 15 52 58 85 95 33 38 74 83 90 101 17 18 64 69 105 114 127 139
138 151 280 295 199 202 265 263 359 330 28 20 30 24 12 22 -12 -1 -23 -3 -25
-4z m-4793 -2478 c42 -17 17 -105 -45 -163 -91 -85 -155 -128 -273 -183 -118
-55 -375 -123 -375 -99 0 22 214 222 325 303 93 69 99 72 180 111 88 43 137
51 188 31z m965 -1 c18 -12 22 -23 18 -47 -2 -18 -5 -32 -6 -32 -1 0 -3 -8 -5
-17 -3 -15 -56 -99 -80 -125 -5 -6 -28 -33 -50 -59 -125 -151 -365 -389 -504
-501 -136 -109 -211 -163 -228 -163 -7 0 -13 -4 -13 -8 0 -4 -17 -14 -37 -22
-54 -20 -63 -22 -111 -24 -52 -3 -67 17 -58 76 25 154 328 511 626 738 126 96
264 176 335 193 42 10 92 6 113 -9z m1276 6 c22 -8 26 -16 26 -48 0 -81 -107
-218 -405 -517 -318 -320 -582 -488 -673 -429 -20 13 -23 22 -19 55 4 35 68
175 86 189 4 3 14 17 24 32 63 100 305 356 431 457 39 31 73 59 76 62 17 21
167 118 232 151 115 58 166 70 222 48z m3357 -10 c23 -35 -7 -117 -77 -209
-72 -94 -411 -448 -495 -516 -13 -11 -47 -38 -74 -61 -83 -68 -209 -153 -269
-180 -68 -31 -139 -39 -161 -18 -112 113 439 740 831 945 43 23 87 43 97 45
11 2 22 5 24 8 12 11 115 0 124 -14z m-1203 -1638 c-11 -16 -37 -47 -128 -152
-112 -129 -352 -382 -468 -494 -158 -151 -238 -224 -322 -292 -19 -16 -37 -32
-40 -35 -3 -4 -43 -36 -90 -73 -47 -36 -89 -69 -95 -74 -38 -31 -222 -144
-275 -169 -122 -58 -234 -79 -258 -50 -16 18 -6 64 25 117 27 46 209 233 297
305 27 22 54 45 60 50 17 16 159 127 191 150 15 11 39 29 54 41 63 50 241 174
250 174 5 0 11 4 13 8 5 11 215 152 228 152 5 0 10 4 10 8 0 5 11 14 25 20 14
7 31 17 38 22 10 9 253 160 342 212 74 44 131 80 139 88 16 16 18 11 4 -8z"/>
<path d="M10459 11623 c-24 -8 -51 -21 -60 -29 -8 -8 -19 -14 -23 -14 -4 0
-13 -6 -21 -12 -7 -7 -36 -33 -64 -58 -56 -48 -85 -88 -95 -132 -5 -23 -2 -27
23 -33 61 -13 212 77 280 168 72 95 55 141 -40 110z"/>
<path d="M18050 11218 c-10 -4 -31 -24 -46 -45 -16 -21 -39 -49 -50 -63 -103
-122 -214 -251 -240 -280 -18 -19 -41 -44 -51 -56 -10 -12 -47 -54 -83 -94
-36 -40 -72 -81 -80 -90 -18 -20 -138 -153 -192 -212 -38 -41 -46 -58 -29 -58
9 0 91 82 141 140 88 103 277 300 287 301 9 1 22 3 78 16 45 11 93 7 112 -9
20 -16 16 -66 -9 -116 -22 -45 -110 -137 -370 -389 -186 -179 -258 -287 -266
-393 -5 -68 11 -100 65 -125 26 -12 50 -16 84 -12 48 6 151 44 157 59 2 4 10
8 18 8 7 0 34 15 59 33 61 43 237 177 251 191 6 6 26 24 45 41 19 16 55 49 81
73 l47 44 -24 -49 c-73 -152 -42 -328 67 -384 63 -32 176 -20 308 33 30 13 57
25 60 28 3 3 39 23 80 44 41 21 77 42 80 45 3 4 23 18 45 31 107 63 298 241
495 459 47 52 111 122 142 155 31 34 85 92 120 130 97 106 195 206 202 206 4
0 0 -10 -8 -22 -19 -30 -38 -134 -41 -233 -1 -44 -6 -105 -10 -135 -8 -66 -54
-210 -91 -282 -72 -143 -226 -317 -282 -319 -109 -5 -143 -7 -191 -13 -62 -8
-158 -42 -183 -64 -10 -8 -18 -28 -18 -43 0 -36 26 -44 118 -36 140 12 238 44
351 112 41 25 86 48 100 51 60 14 222 101 306 165 102 77 159 130 260 244 39
43 79 88 90 100 11 11 44 47 74 80 57 64 249 270 318 342 22 23 43 43 46 43 3
0 -1 -21 -9 -47 -17 -57 -24 -108 -29 -223 -8 -167 -37 -272 -116 -418 -75
-141 -213 -291 -267 -293 -189 -4 -301 -26 -364 -71 -31 -22 -37 -58 -13 -78
24 -20 185 -6 278 25 76 25 192 79 202 95 3 4 31 18 62 30 115 44 139 55 202
92 34 21 67 38 71 38 5 0 10 3 12 8 2 4 29 27 62 52 83 63 248 232 235 241 -6
4 -59 -41 -124 -105 -129 -129 -254 -218 -377 -269 -33 -14 -30 -9 41 61 84
84 148 172 189 260 14 31 27 62 28 67 27 118 32 157 29 235 -2 50 -6 94 -9 99
-3 5 -8 24 -11 42 -2 19 -8 57 -12 84 -16 96 -3 152 45 202 38 38 172 160 225
204 l28 24 -68 -2 c-37 -1 -71 -2 -74 -2 -3 -1 -21 -22 -39 -48 -19 -27 -39
-52 -45 -58 -6 -5 -61 -68 -121 -140 -60 -71 -123 -144 -139 -161 -17 -17 -41
-44 -54 -60 -12 -16 -44 -52 -69 -79 -26 -28 -78 -86 -117 -130 -38 -43 -85
-94 -104 -114 -18 -20 -54 -61 -80 -91 -143 -169 -305 -304 -447 -372 -85 -41
-86 -39 -15 30 129 127 216 273 244 407 17 85 14 259 -6 292 -16 27 -25 189
-13 236 8 34 180 204 267 265 11 7 17 16 15 20 -3 6 -57 7 -118 3 -9 0 -34
-25 -55 -53 -21 -29 -47 -63 -58 -74 -11 -12 -36 -41 -55 -65 -19 -24 -69 -82
-110 -128 -41 -47 -88 -101 -105 -120 -16 -19 -43 -49 -60 -67 -16 -18 -50
-56 -75 -84 -25 -29 -65 -73 -90 -100 -40 -42 -77 -83 -200 -223 -134 -151
-300 -295 -460 -398 -56 -36 -219 -119 -242 -123 -7 -2 -33 -8 -56 -15 -24 -7
-70 -14 -102 -15 -47 -3 -63 1 -84 18 -68 55 -18 211 133 414 33 44 63 82 68
85 4 3 33 8 63 12 73 8 111 15 132 21 9 3 25 6 35 8 55 12 294 112 328 139 6
4 33 22 60 40 69 44 172 150 179 184 15 70 15 72 -15 97 -16 14 -44 28 -62 31
-33 6 -133 0 -164 -9 -10 -3 -29 -7 -43 -10 -59 -10 -213 -76 -296 -126 -60
-36 -184 -129 -227 -169 -78 -73 -93 -88 -141 -147 -28 -32 -100 -109 -160
-169 -95 -95 -141 -136 -261 -232 -53 -44 -178 -123 -239 -152 -159 -75 -240
-28 -176 103 20 42 136 162 209 216 19 14 42 32 52 40 9 8 41 33 70 55 28 22
59 47 68 55 9 8 42 34 73 58 87 67 192 182 223 246 72 147 9 256 -150 259 -33
1 -76 -5 -93 -12 -18 -8 -35 -12 -37 -9 -10 9 408 408 427 408 5 0 8 3 8 8 0
9 -105 9 -130 0z m1014 -458 c17 -17 9 -77 -15 -112 -101 -144 -387 -292 -624
-324 -27 -3 -53 -8 -57 -11 -5 -2 -8 -1 -8 4 0 16 179 191 260 253 25 19 47
37 50 40 12 13 109 79 153 105 94 54 210 76 241 45z m116 -899 c3 -1 -17 -15
-45 -31 -98 -58 -286 -99 -299 -64 -7 18 3 46 15 38 5 -3 9 -1 9 4 0 5 19 14
42 21 59 18 75 21 148 27 35 3 65 6 67 7 2 2 49 0 63 -2z m850 -2 c0 -9 -108
-64 -150 -77 -83 -26 -191 -35 -197 -16 -13 39 77 78 212 90 39 4 71 7 72 8 5
4 63 0 63 -5z"/>
</g>
</svg>
